REM DIRINDEX 1\2\6,1\2\7,1\2\8,1\3\9,1\3\10,1\3\11,1\4\12,1\4\13,1\4\14,1\5\15,1\5\16,1\5\17,1\5\18
REM DIRNAME folder01,folder02,folder03,folder04,folder05,folder06,folder07,folder08,folder09,folder10,folder11,folder12,folder13,folder14,folder15,folder16,folder17,folder18
TITLE ""
FILE "" MP3
  TRACK 01 AUDIO
    TITLE "16:cjc019_7067"
    INDEX 01 00:00:00
  TRACK 02 AUDIO
    TITLE "0:"
    INDEX 01 00:01:22
  TRACK 03 AUDIO
    TITLE "18:cjc019_7068"
    INDEX 01 00:02:04
  TRACK 04 AUDIO
    TITLE "0:"
    INDEX 01 00:06:37
  TRACK 05 AUDIO
    TITLE "17:cjc019_7069"
    INDEX 01 00:07:13
  TRACK 06 AUDIO
    TITLE "0:"
    INDEX 01 00:08:36
  TRACK 07 AUDIO
    TITLE "16:cjc019_7070"
    INDEX 01 00:10:21
  TRACK 08 AUDIO
    TITLE "0:"
    INDEX 01 00:11:39
  TRACK 09 AUDIO
    TITLE "18:cjc019_7071"
    INDEX 01 00:12:20
  TRACK 10 AUDIO
    TITLE "0:"
    INDEX 01 00:15:25
  TRACK 11 AUDIO
    TITLE "17:cjc019_7072"
    INDEX 01 00:15:72
  TRACK 12 AUDIO
    TITLE "0:"
    INDEX 01 00:17:18
  TRACK 13 AUDIO
    TITLE "16:cjc019_7073"
    INDEX 01 00:18:74
  TRACK 14 AUDIO
    TITLE "0:"
    INDEX 01 00:20:06
  TRACK 15 AUDIO
    TITLE "18:cjc019_7074"
    INDEX 01 00:20:63
  TRACK 16 AUDIO
    TITLE "0:"
    INDEX 01 00:25:39
  TRACK 17 AUDIO
    TITLE "17:cjc019_7075"
    INDEX 01 00:26:17
  TRACK 18 AUDIO
    TITLE "0:"
    INDEX 01 00:27:22
  TRACK 19 AUDIO
    TITLE "16:cjc019_7076"
    INDEX 01 00:29:01
  TRACK 20 AUDIO
    TITLE "0:"
    INDEX 01 00:30:24
  TRACK 21 AUDIO
    TITLE "18:cjc019_7077"
    INDEX 01 00:31:00
  TRACK 22 AUDIO
    TITLE "0:"
    INDEX 01 00:35:70
  TRACK 23 AUDIO
    TITLE "17:cjc019_7078"
    INDEX 01 00:36:50
  TRACK 24 AUDIO
    TITLE "0:"
    INDEX 01 00:38:00
  TRACK 25 AUDIO
    TITLE "16:cjc019_7079"
    INDEX 01 00:39:58
  TRACK 26 AUDIO
    TITLE "0:"
    INDEX 01 00:41:00
  TRACK 27 AUDIO
    TITLE "18:cjc019_7080"
    INDEX 01 00:41:55
  TRACK 28 AUDIO
    TITLE "0:"
    INDEX 01 00:44:54
  TRACK 29 AUDIO
    TITLE "17:cjc019_7081"
    INDEX 01 00:45:35
  TRACK 30 AUDIO
    TITLE "0:"
    INDEX 01 00:46:54
  TRACK 31 AUDIO
    TITLE "16:cjc019_7082"
    INDEX 01 00:48:36
  TRACK 32 AUDIO
    TITLE "0:"
    INDEX 01 00:49:49
  TRACK 33 AUDIO
    TITLE "18:cjc019_7083"
    INDEX 01 00:50:35
  TRACK 34 AUDIO
    TITLE "0:"
    INDEX 01 00:53:08
  TRACK 35 AUDIO
    TITLE "17:cjc019_7084"
    INDEX 01 00:53:64
  TRACK 36 AUDIO
    TITLE "0:"
    INDEX 01 00:55:03
  TRACK 37 AUDIO
    TITLE "16:cjc019_7085"
    INDEX 01 00:56:65
  TRACK 38 AUDIO
    TITLE "0:"
    INDEX 01 00:58:03
  TRACK 39 AUDIO
    TITLE "18:cjc019_7086"
    INDEX 01 00:58:62
  TRACK 40 AUDIO
    TITLE "0:"
    INDEX 01 01:03:45
  TRACK 41 AUDIO
    TITLE "17:cjc019_7087"
    INDEX 01 01:04:25
  TRACK 42 AUDIO
    TITLE "0:"
    INDEX 01 01:05:42
  TRACK 43 AUDIO
    TITLE "16:cjc019_7088"
    INDEX 01 01:07:25
  TRACK 44 AUDIO
    TITLE "0:"
    INDEX 01 01:08:42
  TRACK 45 AUDIO
    TITLE "18:cjc019_7089"
    INDEX 01 01:09:36
  TRACK 46 AUDIO
    TITLE "0:"
    INDEX 01 01:11:72
  TRACK 47 AUDIO
    TITLE "17:cjc019_7090"
    INDEX 01 01:12:56
  TRACK 48 AUDIO
    TITLE "0:"
    INDEX 01 01:13:73
  TRACK 49 AUDIO
    TITLE "16:cjc019_7091"
    INDEX 01 01:15:58
  TRACK 50 AUDIO
    TITLE "0:"
    INDEX 01 01:16:67
  TRACK 51 AUDIO
    TITLE "18:cjc019_7092"
    INDEX 01 01:17:55
  TRACK 52 AUDIO
    TITLE "0:"
    INDEX 01 01:20:57
  TRACK 53 AUDIO
    TITLE "17:cjc019_7093"
    INDEX 01 01:21:41
  TRACK 54 AUDIO
    TITLE "0:"
    INDEX 01 01:22:54
  TRACK 55 AUDIO
    TITLE "16:cjc019_7094"
    INDEX 01 01:24:41
  TRACK 56 AUDIO
    TITLE "0:"
    INDEX 01 01:26:03
  TRACK 57 AUDIO
    TITLE "18:cjc019_7095"
    INDEX 01 01:26:56
  TRACK 58 AUDIO
    TITLE "0:"
    INDEX 01 01:30:01
  TRACK 59 AUDIO
    TITLE "17:cjc019_7096"
    INDEX 01 01:30:52
  TRACK 60 AUDIO
    TITLE "0:"
    INDEX 01 01:32:19
  TRACK 61 AUDIO
    TITLE "16:cjc019_7097"
    INDEX 01 01:34:03
  TRACK 62 AUDIO
    TITLE "0:"
    INDEX 01 01:35:26
  TRACK 63 AUDIO
    TITLE "18:cjc019_7098"
    INDEX 01 01:36:05
  TRACK 64 AUDIO
    TITLE "0:"
    INDEX 01 01:37:46
  TRACK 65 AUDIO
    TITLE "17:cjc019_7099"
    INDEX 01 01:38:24
  TRACK 66 AUDIO
    TITLE "0:"
    INDEX 01 01:39:51
  TRACK 67 AUDIO
    TITLE "16:cjc019_7100"
    INDEX 01 01:41:30
  TRACK 68 AUDIO
    TITLE "0:"
    INDEX 01 01:42:49
  TRACK 69 AUDIO
    TITLE "18:cjc019_7101"
    INDEX 01 01:43:33
  TRACK 70 AUDIO
    TITLE "0:"
    INDEX 01 01:47:66
  TRACK 71 AUDIO
    TITLE "17:cjc019_7102"
    INDEX 01 01:48:50
  TRACK 72 AUDIO
    TITLE "0:"
    INDEX 01 01:49:69
  TRACK 73 AUDIO
    TITLE "16:cjc019_7103"
    INDEX 01 01:51:52
  TRACK 74 AUDIO
    TITLE "0:"
    INDEX 01 01:53:00
  TRACK 75 AUDIO
    TITLE "18:cjc019_7104"
    INDEX 01 01:53:59
  TRACK 76 AUDIO
    TITLE "0:"
    INDEX 01 01:55:15
  TRACK 77 AUDIO
    TITLE "17:cjc019_7105"
    INDEX 01 01:55:71
  TRACK 78 AUDIO
    TITLE "0:"
    INDEX 01 01:57:21
  TRACK 79 AUDIO
    TITLE "16:cjc019_7106"
    INDEX 01 01:59:04
  TRACK 80 AUDIO
    TITLE "0:"
    INDEX 01 02:00:04
  TRACK 81 AUDIO
    TITLE "18:cjc019_7107"
    INDEX 01 02:00:59
  TRACK 82 AUDIO
    TITLE "0:"
    INDEX 01 02:03:43
  TRACK 83 AUDIO
    TITLE "17:cjc019_7108"
    INDEX 01 02:04:21
  TRACK 84 AUDIO
    TITLE "0:"
    INDEX 01 02:05:21
  TRACK 85 AUDIO
    TITLE "16:cjc019_7109"
    INDEX 01 02:07:08
  TRACK 86 AUDIO
    TITLE "0:"
    INDEX 01 02:08:25
  TRACK 87 AUDIO
    TITLE "18:cjc019_7110"
    INDEX 01 02:09:07
  TRACK 88 AUDIO
    TITLE "0:"
    INDEX 01 02:10:30
  TRACK 89 AUDIO
    TITLE "17:cjc019_7111"
    INDEX 01 02:11:08
  TRACK 90 AUDIO
    TITLE "0:"
    INDEX 01 02:12:27
  TRACK 91 AUDIO
    TITLE "16:cjc019_7112"
    INDEX 01 02:14:14
  TRACK 92 AUDIO
    TITLE "0:"
    INDEX 01 02:15:21
  TRACK 93 AUDIO
    TITLE "18:cjc019_7113"
    INDEX 01 02:16:07
  TRACK 94 AUDIO
    TITLE "0:"
    INDEX 01 02:19:21
  TRACK 95 AUDIO
    TITLE "17:cjc019_7114"
    INDEX 01 02:19:74
  TRACK 96 AUDIO
    TITLE "0:"
    INDEX 01 02:21:12
  TRACK 97 AUDIO
    TITLE "16:cjc019_7115"
    INDEX 01 02:22:70
  TRACK 98 AUDIO
    TITLE "0:"
    INDEX 01 02:24:02
  TRACK 99 AUDIO
    TITLE "18:cjc019_7116"
    INDEX 01 02:24:55
  TRACK 100 AUDIO
    TITLE "0:"
    INDEX 01 02:26:27
  TRACK 101 AUDIO
    TITLE "17:cjc019_7117"
    INDEX 01 02:27:07
  TRACK 102 AUDIO
    TITLE "0:"
    INDEX 01 02:28:18
  TRACK 103 AUDIO
    TITLE "16:cjc019_7118"
    INDEX 01 02:29:74
  TRACK 104 AUDIO
    TITLE "0:"
    INDEX 01 02:31:10
  TRACK 105 AUDIO
    TITLE "18:cjc019_7119"
    INDEX 01 02:31:67
  TRACK 106 AUDIO
    TITLE "0:"
    INDEX 01 02:35:00
  TRACK 107 AUDIO
    TITLE "17:cjc019_7120"
    INDEX 01 02:35:51
  TRACK 108 AUDIO
    TITLE "0:"
    INDEX 01 02:36:60
